<?xml version="1.0" encoding="UTF-8"?>
<!DOCTYPE svg PUBLIC "-//W3C//DTD SVG 1.1//EN" "http://www.w3.org/Graphics/SVG/1.1/DTD/svg11.dtd">
<svg xmlns="http://www.w3.org/2000/svg" version="1.1" width="144px" height="144px" style="shape-rendering:geometricPrecision; text-rendering:geometricPrecision; image-rendering:optimizeQuality; fill-rule:evenodd; clip-rule:evenodd" xmlns:xlink="http://www.w3.org/1999/xlink">
<g><path style="opacity:0.881" fill="#695687" d="M 56.5,-0.5 C 66.5,-0.5 76.5,-0.5 86.5,-0.5C 116.474,7.4735 135.474,26.4735 143.5,56.5C 143.5,66.5 143.5,76.5 143.5,86.5C 135.474,116.527 116.474,135.527 86.5,143.5C 76.5,143.5 66.5,143.5 56.5,143.5C 26.5265,135.527 7.52649,116.527 -0.5,86.5C -0.5,76.5 -0.5,66.5 -0.5,56.5C 7.52649,26.4735 26.5265,7.4735 56.5,-0.5 Z M 62.5,15.5 C 96.8706,13.7253 118.371,29.392 127,62.5C 129.257,96.8966 113.757,118.397 80.5,127C 46.1034,129.257 24.6034,113.757 16,80.5C 13.9441,46.0828 29.4441,24.4161 62.5,15.5 Z"/></g>
<g><path style="opacity:0.881" fill="#eb7e3f" d="M 61.5,30.5 C 86.0394,27.6704 102.539,37.6704 111,60.5C 115.396,83.3528 107.229,99.8528 86.5,110C 62.7744,117.042 44.941,109.876 33,88.5C 31.8551,85.5682 31.0218,82.5682 30.5,79.5C 37.5079,79.3337 44.5079,79.5004 51.5,80C 57.6323,90.5626 66.6323,94.2293 78.5,91C 90.5278,84.9338 94.3612,75.4338 90,62.5C 80.1126,48.7065 68.4459,47.0399 55,57.5C 53.8333,59.3333 52.6667,61.1667 51.5,63C 44.5079,63.4996 37.5079,63.6663 30.5,63.5C 34.358,46.3115 44.6913,35.3115 61.5,30.5 Z"/></g>
</svg>
